<svg width="32" height="32" viewBox="0 0 32 32" fill="none" xmlns="http://www.w3.org/2000/svg">
<path d="M9.87194 12.3654C8.04509 19.121 6.14444 26.2321 5.62775 28.1284L4.68665 31.739C4.6682 31.5019 4.7051 31.976 4.68665 31.739L5.62775 31.6839L8.94929 31.8025L11.016 24.0988C12.1601 19.8716 13.175 16.3555 13.2673 16.2765C13.3596 16.1975 13.8947 17.8963 14.4667 20.0296L15.5001 23.9012L13.6179 24.0988L11.7357 24.2963L10.7761 27.8518C10.241 29.8272 9.79813 31.5259 9.77968 31.6839C9.77968 31.8815 14.0977 32 19.3568 32H22.6599L20.5747 26.7457L16.9764 13.3926C15.0019 6.00493 13.3411 -5.96851e-08 13.2858 -5.96851e-08C13.2304 -5.96851e-08 11.6988 5.57036 9.87194 12.3654Z" fill="#1D3557"/>
<path d="M14.4393 17.9753V32H17.1888H19.9567L20.9717 28.2864C21.5437 26.2321 22.005 24.4543 22.005 24.3358C22.005 24.2173 21.1377 24.0988 20.0675 24.0988H18.1299V23.1111V22.1235H20.3996H22.6693L23.7027 18.2518L24.7361 14.4197L21.433 14.3012L18.1299 14.2222V13.2346V12.2469H21.7098H25.2897L26.3784 8.25678L27.4487 3.95061C27.4487 4.06913 27.6724 3.63456 27.4487 3.95061C27.4487 4.26666 27.4487 3.83209 27.4487 3.95061C27.4487 4.06913 27.4487 3.83209 27.4487 3.95061C27.4487 4.06913 27.6724 3.63456 27.4487 3.95061C25.6772 9.24444 27.4487 3.83209 27.4487 3.95061C27.4487 4.06913 27.5217 3.66692 27.4487 3.95061C27.225 4.26666 14.4393 3.71357 27.4487 3.95061H14.4393V17.9753Z" fill="#1D3557"/>
<path d="M22.9927 4.42511C24.2844 7.90165 27.4768 17.9757 27.403 18.3708C27.3661 18.6473 26.3511 21.7288 25.1886 25.2054C24.0076 28.6819 23.0481 31.6449 23.0481 31.7634C23.0481 31.9214 24.063 31.9609 25.2993 31.9214L27.5506 31.8029L29.8203 25.0868C31.0751 21.4128 32.0531 18.1733 31.9978 17.8572C31.9609 17.5807 30.909 14.3412 29.6727 10.6671L27.4399 3.95103H25.1333C23.3064 3.95103 22.8635 4.06955 22.9927 4.42511Z" fill="#E63946"/>
<path d="M9.90813 4.55799C8.48724 8.02587 4.9756 18.0749 5.0568 18.4689C5.09739 18.7448 6.21381 21.8186 7.49261 25.2865C8.79172 28.7544 9.84724 31.7099 9.84724 31.8282C9.84724 31.9858 8.73082 32.0252 7.37082 31.9858L4.89441 31.8676L2.39769 25.1682C1.0174 21.5033 -0.0584236 18.2719 0.00247183 17.9566C0.0430688 17.6808 1.20008 14.4493 2.56008 10.7844L5.0162 4.0851H7.55351C9.56306 4.0851 10.0502 4.20332 9.90813 4.55799Z" fill="#E63946"/>
</svg>
