<svg width="666" height="178" viewBox="0 0 666 178" fill="none" xmlns="http://www.w3.org/2000/svg">
<g filter="url(#filter0_i)">
<path d="M96.2966 68.9024C83.9955 106.439 71.1974 145.951 67.7183 156.488L61.3813 176.55C61.2571 175.232 61.5056 177.867 61.3813 176.55L67.7183 176.244L90.0839 176.902L104 134.098C111.704 110.61 118.538 91.0731 119.159 90.6341C119.781 90.1951 123.384 99.6341 127.236 111.488L134.194 133L121.52 134.098L108.846 135.195L102.385 154.951C98.7817 165.927 95.7996 175.366 95.6754 176.244C95.6754 177.341 124.751 178 160.163 178H224.651L231.485 156.488L238.319 135.195L216.699 134.537L195.078 134.098V77.9024V21.9268L182.404 22.5854L169.606 23.2439L168.985 86.0244L168.364 148.805L144.134 74.6097C130.839 33.5609 119.656 0.195129 119.284 0.195129C118.911 0.195129 108.598 31.1463 96.2966 68.9024Z" fill="#1D3557"/>
<path d="M308.149 100.073V178H326.663H345.301L352.135 157.366C355.987 145.951 359.093 136.073 359.093 135.415C359.093 134.756 353.253 134.098 346.047 134.098H333V128.61V123.122H348.283H363.567L370.525 101.61L377.483 80.317L355.242 79.6585L333 79.2195V73.7317V68.2439H357.105H381.211L388.542 46.0731L395.748 23.9024L396.121 46.0731L396.494 68.2439H415.629H434.764L412.398 123.122L390.157 178H478.377H566.597V156.049V134.098H547.338C536.776 134.098 528.078 133.439 528.078 132.78C528.078 132.122 537.894 107.537 549.823 78.1219C561.751 48.7073 571.567 24.1219 571.567 23.4634C571.567 22.8048 552.059 22.1463 528.078 22.1463H484.59V45.1951V68.2439H503.228C513.541 68.2439 521.866 68.9024 521.866 69.5609C521.866 70.2195 512.174 94.5853 500.494 123.561L478.998 176.244L478.625 155.171L478.253 134.098H459.118C448.556 134.098 439.858 133.658 439.858 133C439.858 132.341 449.674 107.756 461.603 78.3414C473.531 48.9268 483.347 24.1219 483.347 23.4634C483.347 22.8048 443.959 22.1463 395.748 22.1463H308.149V100.073Z" fill="#1D3557"/>
<path d="M572.81 100.073V178H585.236H597.661V100.073V22.1463H585.236H572.81V100.073Z" fill="#1D3557"/>
<path d="M604.744 24.7805C613.442 44.0975 634.937 100.073 634.44 102.268C634.192 103.805 627.358 120.927 619.53 140.244C611.578 159.561 605.117 176.024 605.117 176.683C605.117 177.561 611.951 177.78 620.276 177.561L635.434 176.902L650.718 139.585C659.167 119.171 665.752 101.171 665.38 99.4146C665.131 97.878 658.049 79.878 649.724 59.4634L634.689 22.1463H619.157C606.856 22.1463 603.874 22.8049 604.744 24.7805Z" fill="#E63946"/>
<path d="M61.2544 23.7805C52.5567 43.0975 31.0608 99.0731 31.5578 101.268C31.8063 102.805 38.6402 119.927 46.4682 139.244C54.4205 158.561 60.8816 175.024 60.8816 175.683C60.8816 176.561 54.0477 176.78 45.7227 176.561L30.5638 175.902L15.2806 138.585C6.83133 118.171 0.245888 100.171 0.618649 98.4146C0.867157 96.878 7.94961 78.878 16.2746 58.4634L31.3093 21.1463H46.841C59.1421 21.1463 62.1242 21.8049 61.2544 23.7805Z" fill="#E63946"/>
<path d="M238.567 101.171V123.122H270.252H301.937V101.171V79.2195H270.252H238.567V101.171Z" fill="#E63946"/>
</g>
<defs>
<filter id="filter0_i" x="0.603577" y="0.195129" width="664.791" height="181.805" filterUnits="userSpaceOnUse" color-interpolation-filters="sRGB">
<feFlood flood-opacity="0" result="BackgroundImageFix"/>
<feBlend mode="normal" in="SourceGraphic" in2="BackgroundImageFix" result="shape"/>
<feColorMatrix in="SourceAlpha" type="matrix" values="0 0 0 0 0 0 0 0 0 0 0 0 0 0 0 0 0 0 127 0" result="hardAlpha"/>
<feOffset dy="4"/>
<feGaussianBlur stdDeviation="2"/>
<feComposite in2="hardAlpha" operator="arithmetic" k2="-1" k3="1"/>
<feColorMatrix type="matrix" values="0 0 0 0 0 0 0 0 0 0 0 0 0 0 0 0 0 0 0.25 0"/>
<feBlend mode="normal" in2="shape" result="effect1_innerShadow"/>
</filter>
</defs>
</svg>
